<?xml version="1.0" encoding="utf-8"?><svg viewBox="0 0 512 512" xmlns="http://www.w3.org/2000/svg" xmlns:xlink="http://www.w3.org/1999/xlink"><style>:root>svg{display:none}:root>svg:target{display:block}</style><svg fill="none" viewBox="0 0 24 24" id="down" xmlns="http://www.w3.org/2000/svg"><path stroke="#fff" stroke-linecap="round" stroke-linejoin="round" stroke-width="2" d="M6 9l6 6 6-6"/></svg><svg viewBox="0 0 24 24" id="facebook" xmlns="http://www.w3.org/2000/svg"><path fill="#fff" d="M22.675 0H1.325C.593 0 0 .593 0 1.325v21.351C0 23.407.593 24 1.325 24H12.82v-9.294H9.692v-3.622h3.128V8.413c0-3.1 1.893-4.788 4.659-4.788 1.325 0 2.463.099 2.795.143v3.24l-1.918.001c-1.504 0-1.795.715-1.795 1.763v2.313h3.587l-.467 3.622h-3.12V24h6.116c.73 0 1.323-.593 1.323-1.325V1.325C24 .593 23.407 0 22.675 0z"/></svg><svg viewBox="0 0 24 24" id="instagram" xmlns="http://www.w3.org/2000/svg"><path fill="#fff" d="M12 2.163c3.204 0 3.584.012 4.85.07 3.252.148 4.771 1.691 4.919 4.919.058 1.265.069 1.645.069 4.849 0 3.205-.012 3.584-.069 4.849-.149 3.225-1.664 4.771-4.919 4.919-1.266.058-1.644.07-4.85.07-3.204 0-3.584-.012-4.849-.07-3.26-.149-4.771-1.699-4.919-4.92-.058-1.265-.07-1.644-.07-4.849 0-3.204.013-3.583.07-4.849.149-3.227 1.664-4.771 4.919-4.919 1.266-.057 1.645-.069 4.849-.069zM12 0C8.741 0 8.333.014 7.053.072 2.695.272.273 2.69.073 7.052.014 8.333 0 8.741 0 12c0 3.259.014 3.668.072 4.948.2 4.358 2.618 6.78 6.98 6.98C8.333 23.986 8.741 24 12 24c3.259 0 3.668-.014 4.948-.072 4.354-.2 6.782-2.618 6.979-6.98.059-1.28.073-1.689.073-4.948 0-3.259-.014-3.667-.072-4.947-.196-4.354-2.617-6.78-6.979-6.98C15.668.014 15.259 0 12 0zm0 5.838a6.162 6.162 0 100 12.324 6.162 6.162 0 000-12.324zM12 16a4 4 0 110-8 4 4 0 010 8zm6.406-11.845a1.44 1.44 0 100 2.881 1.44 1.44 0 000-2.881z"/></svg><svg viewBox="0 0 256 256" id="mail" xmlns="http://www.w3.org/2000/svg"><g fill="#d5d5d5" stroke-miterlimit="10" stroke-width="0"><path d="M128 147.087l126.036-94.863v-5.509c0-5.685-4.61-10.296-10.296-10.296H12.26c-5.686 0-10.296 4.61-10.296 10.296v5.51L128 147.086z"/><path d="M134.736 170.065c-1.994 1.501-4.367 2.252-6.736 2.252s-4.742-.75-6.736-2.252L1.964 80.27v129.016c0 5.685 4.61 10.296 10.296 10.296h231.48c5.686 0 10.296-4.61 10.296-10.296V80.269l-119.3 89.796z"/></g></svg><svg viewBox="0 0 512 512" id="map" xmlns="http://www.w3.org/2000/svg"><path fill="#d5d5d5" d="M87.084 192c-.456-5.272-.688-10.6-.688-16C86.404 78.8 162.34 0 256.004 0s169.6 78.8 169.6 176c0 5.392-.232 10.728-.688 16h.688c0 96.184-169.6 320-169.6 320s-169.6-223.288-169.6-320h.68zm168.92 32c36.392 1.024 66.744-27.608 67.84-64-1.096-36.392-31.448-65.024-67.84-64-36.392-1.024-66.744 27.608-67.84 64 1.096 36.392 31.448 65.024 67.84 64z"/></svg><svg viewBox="0 0 18 18" id="mobile" xmlns="http://www.w3.org/2000/svg"><path fill="#d5d5d5" d="M12 18H6c-1.1-.01-1.99-.9-2-2V2C4.01.9 4.9.01 6 0h6c1.1.01 1.99.9 2 2v14c-.01 1.1-.9 1.99-2 2zm-3-4c-.55 0-1 .45-1 1s.45 1 1 1 1-.45 1-1-.45-1-1-1zm1.95-12h-3.9C6.47 2 6 2.47 6 3.04v8.9c0 .58.47 1.05 1.05 1.05h3.9c.58 0 1.05-.47 1.05-1.05v-8.9C12 2.47 11.53 2 10.95 2z"/></svg><svg viewBox="0 0 20 20" id="phone" xmlns="http://www.w3.org/2000/svg"><path fill="#d5d5d5" d="M17.256 12.253c-.096-.667-.611-1.187-1.274-1.342-2.577-.604-3.223-2.088-3.332-3.734C12.193 7.092 11.38 7 10 7s-2.193.092-2.65.177c-.109 1.646-.755 3.13-3.332 3.734-.663.156-1.178.675-1.274 1.342l-.497 3.442C2.072 16.907 2.962 18 4.2 18h11.6c1.237 0 2.128-1.093 1.953-2.305l-.497-3.442zM10 15.492c-1.395 0-2.526-1.12-2.526-2.5s1.131-2.5 2.526-2.5 2.526 1.12 2.526 2.5-1.132 2.5-2.526 2.5zM19.95 6c-.024-1.5-3.842-3.999-9.95-4C3.891 2.001.073 4.5.05 6s.021 3.452 2.535 3.127c2.941-.381 2.76-1.408 2.76-2.876C5.345 5.227 7.737 4.98 10 4.98s4.654.247 4.655 1.271c0 1.468-.181 2.495 2.76 2.876C19.928 9.452 19.973 7.5 19.95 6z"/></svg><svg viewBox="0 0 511.998 511.998" id="pinterest" xmlns="http://www.w3.org/2000/svg"><path fill="#fff" d="M405.017 52.467C369.774 18.634 321.001 0 267.684 0 186.24 0 136.148 33.385 108.468 61.39c-34.114 34.513-53.675 80.34-53.675 125.732 0 56.993 23.839 100.737 63.76 117.011 2.68 1.098 5.377 1.651 8.021 1.651 8.422 0 15.095-5.511 17.407-14.35 1.348-5.071 4.47-17.582 5.828-23.013 2.906-10.725.558-15.884-5.78-23.353-11.546-13.662-16.923-29.817-16.923-50.842 0-62.451 46.502-128.823 132.689-128.823 68.386 0 110.866 38.868 110.866 101.434 0 39.482-8.504 76.046-23.951 102.961-10.734 18.702-29.609 40.995-58.585 40.995-12.53 0-23.786-5.147-30.888-14.121-6.709-8.483-8.921-19.441-6.222-30.862 3.048-12.904 7.205-26.364 11.228-39.376 7.337-23.766 14.273-46.213 14.273-64.122 0-30.632-18.832-51.215-46.857-51.215-35.616 0-63.519 36.174-63.519 82.354 0 22.648 6.019 39.588 8.744 46.092-4.487 19.01-31.153 132.03-36.211 153.342-2.925 12.441-20.543 110.705 8.618 118.54 32.764 8.803 62.051-86.899 65.032-97.713 2.416-8.795 10.869-42.052 16.049-62.495 15.817 15.235 41.284 25.535 66.064 25.535 46.715 0 88.727-21.022 118.298-59.189 28.679-37.02 44.474-88.618 44.474-145.282-.002-44.298-19.026-87.97-52.191-119.814z"/></svg><svg viewBox="0 0 24 24" id="twitter" xmlns="http://www.w3.org/2000/svg"><path fill="#fff" d="M24 4.557a9.83 9.83 0 01-2.828.775 4.932 4.932 0 002.165-2.724 9.864 9.864 0 01-3.127 1.195 4.916 4.916 0 00-3.594-1.555c-3.179 0-5.515 2.966-4.797 6.045A13.978 13.978 0 011.671 3.149a4.93 4.93 0 001.523 6.574 4.903 4.903 0 01-2.229-.616c-.054 2.281 1.581 4.415 3.949 4.89a4.935 4.935 0 01-2.224.084 4.928 4.928 0 004.6 3.419A9.9 9.9 0 010 19.54a13.94 13.94 0 007.548 2.212c9.142 0 14.307-7.721 13.995-14.646A10.025 10.025 0 0024 4.557z"/></svg><svg viewBox="0 0 24 24" id="vimeo" xmlns="http://www.w3.org/2000/svg"><path fill="#fff" d="M22.875 10.063c-2.442 5.217-8.337 12.319-12.063 12.319-3.672 0-4.203-7.831-6.208-13.043-.987-2.565-1.624-1.976-3.474-.681L.002 7.203C2.7 4.831 5.4 2.076 7.059 1.923c1.868-.179 3.018 1.098 3.448 3.832.568 3.593 1.362 9.17 2.748 9.17 1.08 0 3.741-4.424 3.878-6.006.243-2.316-1.703-2.386-3.392-1.663 2.673-8.754 13.793-7.142 9.134 2.807z"/></svg></svg>