<?xml version="1.0" encoding="UTF-8"?>
<svg width="16px" height="16px" viewBox="0 0 16 16" version="1.1" xmlns="http://www.w3.org/2000/svg" xmlns:xlink="http://www.w3.org/1999/xlink">
    <!-- Generator: Sketch 49.3 (51167) - http://www.bohemiancoding.com/sketch -->
    <title>a/icon_close_small</title>
    <desc>Created with Sketch.</desc>
    <defs>
        <path d="M8,6.58578644 L5.17157288,3.75735931 L3.75735931,5.17157288 L6.58578644,8 L3.75735931,10.8284271 L5.17157288,12.2426407 L8,9.41421356 L10.8284271,12.2426407 L12.2426407,10.8284271 L9.41421356,8 L12.2426407,5.17157288 L10.8284271,3.75735931 L8,6.58578644 L8,6.58578644 Z M2.34314575,13.6568542 C5.46734008,16.7810486 10.5326599,16.7810486 13.6568542,13.6568542 C16.7810486,10.5326599 16.7810486,5.46734008 13.6568542,2.34314575 C10.5326599,-0.781048583 5.46734008,-0.781048583 2.34314575,2.34314575 C-0.781048583,5.46734008 -0.781048583,10.5326599 2.34314575,13.6568542 L2.34314575,13.6568542 Z" id="path-1"></path>
    </defs>
    <g id="Discussions-(!)" stroke="none" stroke-width="1" fill="none" fill-rule="evenodd">
        <g id="00_01_00_Synth_User_Profile_2-Copy" transform="translate(-1400.000000, -892.000000)">
            <g id="Group-2-Copy-2" transform="translate(0.000000, 868.000000)">
                <g id="a/icon_close_small" transform="translate(1400.000000, 24.000000)">
                    <mask id="mask-2" fill="white">
                        <use xlink:href="#path-1"></use>
                    </mask>
                    <use fill="#B2B3BB" fill-rule="evenodd" xlink:href="#path-1"></use>
                    <g id="_/white" mask="url(#mask-2)" fill="#FFFFFF" fill-rule="evenodd">
                        <rect id="Color" x="0" y="0" width="16" height="16"></rect>
                    </g>
                </g>
            </g>
        </g>
    </g>
</svg>
