<?xml version="1.0" encoding="utf-8"?><svg viewBox="0 0 24 24" xmlns="http://www.w3.org/2000/svg" xmlns:xlink="http://www.w3.org/1999/xlink"><style>:root>svg{display:none}:root>svg:target{display:block}</style><svg fill="none" viewBox="0 0 24 24" id="clock" xmlns="http://www.w3.org/2000/svg"><path stroke="#202025" stroke-linecap="round" stroke-linejoin="round" stroke-width="2" d="M12 19a7 7 0 100-14 7 7 0 000 14z"/><path stroke="#202025" stroke-linecap="round" stroke-linejoin="round" stroke-width="2" d="M12 9v3l1.5 1.5m3.01 3.85l-.35 3.83a2 2 0 01-2 1.82H9.83a2 2 0 01-2-1.82l-.35-3.83m.01-10.7l.35-3.83A2 2 0 019.83 1h4.35a2 2 0 012 1.82l.35 3.83"/></svg><svg fill="none" viewBox="0 0 20 20" id="lock" xmlns="http://www.w3.org/2000/svg"><path fill="#202025" fill-rule="evenodd" d="M14.277 4.157a1 1 0 000-1.414 6 6 0 00-8.486 0C4.604 3.93 3.984 5.45 4 7.007c.004.393.006.707.006.993H4v2.49a403.76 403.76 0 000 .482V16a2 2 0 002 2h8a2 2 0 002-2V8H6.164a4 4 0 016.698-3.843 1 1 0 001.415 0zM12 12a2 2 0 01-1 1.733V15a1 1 0 11-2 0v-1.268A2 2 0 1112 12z" clip-rule="evenodd"/></svg></svg>